<?xml version="1.0" encoding="utf-8"?>
<!-- Generator: Adobe Illustrator 23.0.1, SVG Export Plug-In . SVG Version: 6.00 Build 0)  -->
<svg version="1.1" id="Layer_1" xmlns="http://www.w3.org/2000/svg" xmlns:xlink="http://www.w3.org/1999/xlink" x="0px" y="0px"
	 viewBox="0 0 1600 1600" style="enable-background:new 0 0 1600 1600;" xml:space="preserve">
<style type="text/css">
	.st0{fill:none;}
</style>
<path class="st0" d="M905.75,507.5h212.5c9.94,0,18,8.06,18,18s-8.06,18-18,18H995.81c10.33,10.78,16.69,25.39,16.69,41.5v35h105.75
	c9.94,0,18,8.06,18,18s-8.06,18-18,18H1012.5v76.5h105.75c9.94,0,18,8.06,18,18s-8.06,18-18,18H1012.5V877h152
	c13.23,0,24-10.77,24-24V423c0-13.23-10.77-24-24-24h-305c-13.23,0-24,10.77-24,24v102h52.28
	C888.04,515.29,895.98,507.5,905.75,507.5z"/>
<path class="st0" d="M905.75,768.5c-9.94,0-18-8.06-18-18s8.06-18,18-18h70.75V656h-70.75c-9.94,0-18-8.06-18-18s8.06-18,18-18
	h70.75v-35c0-13.23-10.77-24-24-24h-117v108.5h70.75c9.94,0,18,8.06,18,18s-8.06,18-18,18H835.5V782h70.75c9.94,0,18,8.06,18,18
	c0,9.94-8.06,18-18,18H835.5v35c0,13.23,10.77,24,24,24h117V768.5H905.75z"/>
<path class="st0" d="M906.25,930.5H800.5V1039h152c13.23,0,24-10.77,24-24V913h-52.28C923.96,922.71,916.02,930.5,906.25,930.5z"/>
<path class="st0" d="M694.25,1092.5h-212.5c-9.94,0-18-8.06-18-18s8.06-18,18-18h122.44c-10.33-10.78-16.69-25.39-16.69-41.5v-35
	H481.75c-9.94,0-18-8.06-18-18s8.06-18,18-18H587.5v-76.5H481.75c-9.94,0-18-8.06-18-18s8.06-18,18-18H587.5V723h-152
	c-13.23,0-24,10.77-24,24v430c0,13.23,10.77,24,24,24h305c13.23,0,24-10.77,24-24v-102h-52.28
	C711.96,1084.71,704.02,1092.5,694.25,1092.5z"/>
<path class="st0" d="M693.75,930.5c-9.94,0-18-8.06-18-18s8.06-18,18-18h70.75V818h-70.75c-9.94,0-18-8.06-18-18
	c0-9.94,8.06-18,18-18h70.75v-35c0-13.23-10.77-24-24-24h-117v108.5h70.75c9.94,0,18,8.06,18,18s-8.06,18-18,18H623.5V944h70.75
	c9.94,0,18,8.06,18,18s-8.06,18-18,18H623.5v35c0,13.23,10.77,24,24,24h117V930.5H693.75z"/>
<path class="st0" d="M693.75,669.5H799.5V561h-152c-13.23,0-24,10.77-24,24v102h52.28C676.04,677.29,683.98,669.5,693.75,669.5z"/>
<path class="st0" d="M783.81,705.5c7.95,8.29,13.54,18.86,15.69,30.63V705.5H783.81z"/>
<path class="st0" d="M816.19,894.5c-7.95-8.29-13.54-18.86-15.69-30.63v30.63H816.19z"/>
<path d="M976.5,1015c0,13.23-10.77,24-24,24h-152v36h152c33.14,0,60-26.86,60-60V913h-36V1015z"/>
<rect x="976.5" y="656" width="36" height="76.5"/>
<path d="M952.5,561c13.23,0,24,10.77,24,24v35h36v-35c0-16.11-6.36-30.72-16.69-41.5h-90.06c-9.94,0-18-8.06-18-18
	c0-0.17,0.02-0.33,0.03-0.5H835.5v36H952.5z"/>
<rect x="976.5" y="768.5" width="36" height="108.5"/>
<path d="M623.5,585c0-13.23,10.77-24,24-24h152v-36h-152c-33.14,0-60,26.86-60,60v102h36V585z"/>
<path d="M906.25,818c9.94,0,18-8.06,18-18c0-9.94-8.06-18-18-18H835.5v36H906.25z"/>
<path d="M800.5,930.5h105.75c9.77,0,17.71-7.79,17.97-17.5H859.5c-17.03,0-32.39-7.11-43.31-18.5H800.5V930.5z"/>
<path d="M906.25,705.5c9.94,0,18-8.06,18-18s-8.06-18-18-18H835.5v36H906.25z"/>
<path d="M799.5,669.5H693.75c-9.77,0-17.71,7.79-17.97,17.5h64.72c17.03,0,32.39,7.11,43.31,18.5h15.69V669.5z"/>
<path d="M1164.5,363h-305c-33.14,0-60,26.86-60,60v102h36V423c0-13.23,10.77-24,24-24h305c13.23,0,24,10.77,24,24v430
	c0,13.23-10.77,24-24,24h-152v36h152c33.14,0,60-26.86,60-60V423C1224.5,389.86,1197.64,363,1164.5,363z"/>
<rect x="799.5" y="525" width="36" height="36"/>
<rect x="976.5" y="877" width="36" height="36"/>
<rect x="800.5" y="782" width="35" height="36"/>
<path d="M859.5,913h64.72c0-0.17,0.03-0.33,0.03-0.5c0-9.94-8.06-18-18-18h-90.06C827.11,905.89,842.47,913,859.5,913z"/>
<rect x="799.5" y="669.5" width="36" height="36"/>
<path d="M1118.25,656c9.94,0,18-8.06,18-18s-8.06-18-18-18H1012.5v36H1118.25z"/>
<rect x="976.5" y="620" width="36" height="36"/>
<path d="M1118.25,768.5c9.94,0,18-8.06,18-18s-8.06-18-18-18H1012.5v36H1118.25z"/>
<rect x="976.5" y="732.5" width="36" height="36"/>
<path d="M1136.25,525.5c0-9.94-8.06-18-18-18h-212.5c-9.77,0-17.71,7.79-17.97,17.5h64.72c17.03,0,32.39,7.11,43.31,18.5h122.44
	C1128.19,543.5,1136.25,535.44,1136.25,525.5z"/>
<path d="M952.5,525h-64.72c0,0.17-0.03,0.33-0.03,0.5c0,9.94,8.06,18,18,18h90.06C984.89,532.11,969.53,525,952.5,525z"/>
<path d="M799.5,818h-35v76.5h36v-30.63c-0.65-3.53-1-7.15-1-10.87V818z"/>
<path d="M764.5,747v35h35v-45.87c-2.15-11.77-7.74-22.34-15.69-30.63h-90.06c-9.94,0-18-8.06-18-18c0-0.17,0.02-0.33,0.03-0.5H623.5
	v36h117C753.73,723,764.5,733.77,764.5,747z"/>
<rect x="764.5" y="930.5" width="36" height="108.5"/>
<path d="M764.5,1177c0,13.23-10.77,24-24,24h-305c-13.23,0-24-10.77-24-24V747c0-13.23,10.77-24,24-24h152v-36h-152
	c-33.14,0-60,26.86-60,60v430c0,33.14,26.86,60,60,60h305c33.14,0,60-26.86,60-60v-102h-36V1177z"/>
<rect x="587.5" y="687" width="36" height="36"/>
<rect x="764.5" y="1039" width="36" height="36"/>
<rect x="764.5" y="782" width="35" height="36"/>
<rect x="764.5" y="894.5" width="36" height="36"/>
<path d="M740.5,687h-64.72c0,0.17-0.03,0.33-0.03,0.5c0,9.94,8.06,18,18,18h90.06C772.89,694.11,757.53,687,740.5,687z"/>
<path d="M799.5,853c0,3.71,0.35,7.34,1,10.87V818h-1V853z"/>
<path d="M800.5,747c0-3.71-0.35-7.34-1-10.87V782h1V747z"/>
<rect x="799.5" y="782" width="1" height="36"/>
<path d="M481.75,944c-9.94,0-18,8.06-18,18s8.06,18,18,18H587.5v-36H481.75z"/>
<path d="M694.25,980c9.94,0,18-8.06,18-18s-8.06-18-18-18H623.5v36H694.25z"/>
<rect x="587.5" y="944" width="36" height="36"/>
<path d="M463.75,1074.5c0,9.94,8.06,18,18,18h212.5c9.77,0,17.71-7.79,17.97-17.5H647.5c-17.03,0-32.39-7.11-43.31-18.5H481.75
	C471.81,1056.5,463.75,1064.56,463.75,1074.5z"/>
<path d="M647.5,1075h64.72c0-0.17,0.03-0.33,0.03-0.5c0-9.94-8.06-18-18-18h-90.06C615.11,1067.89,630.47,1075,647.5,1075z"/>
<path d="M694.25,867.5c9.94,0,18-8.06,18-18s-8.06-18-18-18H623.5v36H694.25z"/>
<path d="M481.75,831.5c-9.94,0-18,8.06-18,18s8.06,18,18,18H587.5v-36H481.75z"/>
<rect x="587.5" y="831.5" width="36" height="36"/>
</svg>
