<?xml version="1.0" encoding="utf-8"?>
<!-- Generator: Adobe Illustrator 23.0.1, SVG Export Plug-In . SVG Version: 6.00 Build 0)  -->
<svg version="1.1" id="Layer_1" xmlns="http://www.w3.org/2000/svg" xmlns:xlink="http://www.w3.org/1999/xlink" x="0px" y="0px"
	 viewBox="0 0 1600 1600" style="enable-background:new 0 0 1600 1600;" xml:space="preserve">
<style type="text/css">
	.st0{fill:none;}
</style>
<path class="st0" d="M1012.5,1043H994H587.5c-9.94,0-18-8.06-18-18s8.06-18,18-18H994v-36.14l195-194.37V310c0-13.23-10.77-24-24-24
	H435c-13.23,0-24,10.77-24,24v980c0,13.23,10.77,24,24,24h730c13.23,0,24-10.77,24-24V926.49L1072.49,1043H1012.5z M587.5,557h425
	c9.94,0,18,8.06,18,18s-8.06,18-18,18h-425c-9.94,0-18-8.06-18-18S577.56,557,587.5,557z M587.5,782h425c9.94,0,18,8.06,18,18
	c0,9.94-8.06,18-18,18h-425c-9.94,0-18-8.06-18-18C569.5,790.06,577.56,782,587.5,782z"/>
<polygon class="st0" points="1030,1007 1057.58,1007 1189,875.58 1189,827.32 1030,985.8 "/>
<polygon class="st0" points="1253.12,811.45 1229.06,787.39 1225,791.44 1225,839.58 "/>
<path d="M1189,926.49V1290c0,13.23-10.77,24-24,24H435c-13.23,0-24-10.77-24-24V310c0-13.23,10.77-24,24-24h730
	c13.23,0,24,10.77,24,24v466.49l36-35.88V310c0-33.14-26.86-60-60-60H435c-33.14,0-60,26.86-60,60v980c0,33.14,26.86,60,60,60h730
	c33.14,0,60-26.86,60-60V890.49L1189,926.49z"/>
<path d="M587.5,818h425c9.94,0,18-8.06,18-18c0-9.94-8.06-18-18-18h-425c-9.94,0-18,8.06-18,18C569.5,809.94,577.56,818,587.5,818z"
	/>
<path d="M569.5,1025c0,9.94,8.06,18,18,18H994v-36H587.5C577.56,1007,569.5,1015.06,569.5,1025z"/>
<path d="M587.5,593h425c9.94,0,18-8.06,18-18s-8.06-18-18-18h-425c-9.94,0-18,8.06-18,18S577.56,593,587.5,593z"/>
<polygon points="1229.06,787.39 1253.12,811.45 1225,839.58 1225,890.49 1304.04,811.45 1229.1,736.52 1225,740.61 1225,791.44 "/>
<path d="M1057.58,1007H1030v-21.2l159-158.48v-50.83L994,970.86V1007h18.5c9.94,0,18,8.06,18,18s-8.06,18-18,18h59.99L1189,926.49
	v-50.91L1057.58,1007z"/>
<polygon points="1189,827.32 1225,791.44 1225,740.61 1189,776.49 "/>
<polygon points="1189,875.58 1189,926.49 1225,890.49 1225,839.58 "/>
<path d="M1012.5,1043c9.94,0,18-8.06,18-18s-8.06-18-18-18H994v36H1012.5z"/>
</svg>
